<?xml version="1.0" encoding="utf-8"?>
<!-- Generator: Adobe Illustrator 27.5.0, SVG Export Plug-In . SVG Version: 6.00 Build 0)  -->
<svg version="1.1" xmlns="http://www.w3.org/2000/svg" xmlns:xlink="http://www.w3.org/1999/xlink" x="0px" y="0px"
	 viewBox="0 0 500 500" style="enable-background:new 0 0 500 500;" xml:space="preserve">
<g id="BACKGROUND">
	<rect style="fill:#FFFFFF;" width="500" height="500"/>
</g>
<g id="OBJECTS">
	<circle style="fill:#F3F3F3;" cx="250" cy="250" r="187.589"/>
	<g>
		<defs>
			<rect id="SVGID_1_" y="17.45" width="500" height="338.195"/>
		</defs>
		<clipPath id="SVGID_00000116197989212408113330000011662542011799817627_">
			<use xlink:href="#SVGID_1_"  style="overflow:visible;"/>
		</clipPath>
		<g style="clip-path:url(#SVGID_00000116197989212408113330000011662542011799817627_);">
			<path style="fill:#FFD2A8;" d="M262.703,139.793l34.209,7.442l2.568,0.306c6.731-9.618,13.726-17.665,28.14-20.243
				c20.754-3.732,66.909-20.773,92.368,39.192c0,0-28.231,7.615-43.26,12.709c0,0,1.125,6.962,0.4,15.374
				c25.156-9.653,59.006-19.554,68.578-31.262c9.585-11.719,26.255-21.552,40.291-25.121c14.048-3.555,27.545-8.707,27.545-8.707
				s-1.06-38.094-25.58-70.873c0,0-46.707,18.737-60.294,29.336c-12.851,10.025-32.821,11.073-53.565,20.061
				c-2.603,1.128-5.366,1.88-8.182,2.23c-29.608,3.682-33.069-0.059-44.133,1.51c-11.614,1.647-25.115,10.379-35.217,13.031
				C283.327,125.639,273.529,131.187,262.703,139.793z"/>
			<path style="opacity:0.4;fill:#FFD2A8;" d="M348.275,123.261c0,0-44.49,1.42-55.181,23.143
				C315.826,153.092,340.638,133,348.275,123.261z"/>
			<path style="fill:#FFD2A8;" d="M339.145,180.819c0.049,0.027,0.11,0.043,0.185,0.046c0.008-0.174,0.029-0.36,0.025-0.548
				C339.297,180.489,339.227,180.648,339.145,180.819z"/>
			<path style="fill:#FFD2A8;" d="M233.445,220.171c8.602,9.304,21.394,19.961,26.584,13.464c3.039-3.415,4.631-7.894,2.992-12.386
				c-0.419-1.192-1.075-2.382-2.019-3.548c-0.301,0.036-0.627,0.071-0.94,0.094C251.463,218.695,242.496,219.478,233.445,220.171z"
				/>
			<path style="fill:#FFD2A8;" d="M339.145,180.819c0.049,0.027,0.11,0.043,0.185,0.046c0.008-0.174,0.029-0.36,0.025-0.548
				C339.297,180.489,339.227,180.648,339.145,180.819z"/>
			<path style="fill:#FFD2A8;" d="M331.497,229.738c0.216,0.185,0.456,0.395,0.732,0.62c2.86,2.352,8.471,6.179,13.998,5.623
				c5.239-0.532,10.82-4.714,16.488-11.288c3.102-2.875,4.151-4,5.392-4.94c1.642-1.259,5.865-6.802,8.026-18.477
				c0.001-0.025,0.014-0.037,0.002-0.05c0.38-2.016,0.694-4.234,0.917-6.631c0.025,0.001,0.051-0.023,0.076-0.021
				c0.725-8.411-0.4-15.374-0.4-15.374c-1.217,0.418-2.358,0.814-3.373,1.191c-2.512,0.907-5.346,1.512-8.38,1.846
				c-2.436,7.921-9.061,28.484-13.668,33.161C348.388,218.368,340.501,224.39,331.497,229.738z"/>
			<path style="fill:#FFD2A8;" d="M377.053,194.594c-0.223,2.397-0.537,4.616-0.917,6.631c0.503-2.247,0.807-4.503,0.993-6.653
				C377.104,194.571,377.078,194.595,377.053,194.594z"/>
			<path style="opacity:0.4;fill:#FFD2A8;" d="M331.497,229.738c0.216,0.185,0.456,0.395,0.732,0.62
				c2.86,2.352,8.471,6.179,13.998,5.624c5.239-0.532,10.82-4.714,16.488-11.288c3.102-2.876,4.151-4,5.392-4.94
				c1.642-1.259,5.865-6.802,8.026-18.477c0.001-0.025,0.014-0.037,0.002-0.05c0.503-2.247,0.807-4.503,0.993-6.652
				c25.156-9.653,59.006-19.554,68.578-31.262c9.585-11.719,26.255-21.552,40.291-25.121c14.048-3.555,27.545-8.707,27.545-8.707
				s-0.078-2.91-0.711-7.842c-7.508,3.221-19.33,8.014-28.203,10.261c-14.036,3.568-30.706,13.401-40.29,25.121
				c-9.572,11.708-43.422,21.608-68.578,31.261c-0.187,2.149-0.49,4.406-0.993,6.653c0.012,0.013-0.001,0.025-0.002,0.05
				c-2.161,11.675-6.383,17.218-8.026,18.477c-1.241,0.941-2.291,2.065-5.392,4.94c-5.667,6.574-11.249,10.757-16.488,11.288
				c-3.283,0.322-6.608-0.891-9.343-2.427C334.218,228.092,332.87,228.915,331.497,229.738z"/>
			<path style="fill:#FFD2A8;" d="M302.443,239.248c0.25,0.249,0.541,0.437,0.896,0.59c0.649,0.267,1.48,0.368,2.544,0.279
				c4.409-0.395,9.696-2.234,15.114-4.766c0.013-0.012,0.038-0.011,0.051-0.023c2.218-1.02,4.454-2.177,6.643-3.386
				c1.28-0.714,2.562-1.453,3.807-2.207c5.002-2.962,9.664-6.14,13.297-8.904c0.452-0.341,0.892-0.67,1.331-0.999
				c0.297-0.223,0.569-0.448,0.855-0.684c1.89-1.484,3.372-2.788,4.327-3.754c4.607-4.677,11.232-25.24,13.668-33.161
				c-0.79,0.101-1.605,0.175-2.431,0.237c-0.613,0.034-1.239,0.08-1.863,0.101c-7.212,0.328-14.97-0.516-21.351-1.709
				c-0.49,7.362-2.924,14.709-7.166,20.388c-1.236,1.652-3.753,3.207-7.351,4.675c0.01,3.83-3.557,7.345-8.389,11.75
				c-4.206,3.835-8.173,10.313-13.749,14.658c-0.777,0.613-1.601,1.173-2.461,1.695c-0.32,0.192-0.484,0.286-0.401,1.009
				C299.846,236.926,301.526,238.295,302.443,239.248z"/>
			<path style="fill:#FFD2A8;" d="M339.145,180.819c0.049,0.027,0.11,0.043,0.185,0.046c0.008-0.174,0.029-0.36,0.025-0.548
				C339.297,180.489,339.227,180.648,339.145,180.819z"/>
			<path style="fill:#FFD2A8;" d="M339.145,180.819c0.049,0.027,0.11,0.043,0.185,0.046c0.008-0.174,0.029-0.36,0.025-0.548
				C339.297,180.489,339.227,180.648,339.145,180.819z"/>
			<path style="fill:#FFD2A8;" d="M263.021,221.249c5.282,5.82,14.119,13.812,23.853,15.334c2.167,0.337,4.175,0.343,6.009,0.078
				c0.012,0.013,0.012,0.013,0.025,0.001c0.728-0.091,1.433-0.233,2.114-0.401c0.013-0.012,0.038-0.011,0.051-0.023
				c1.869-0.488,3.563-1.245,5.141-2.207c0.86-0.522,1.684-1.082,2.461-1.695c5.577-4.345,9.543-10.823,13.749-14.658
				c4.831-4.405,8.399-7.92,8.389-11.75c0.009-0.748-0.13-1.503-0.406-2.277c-0.476-1.307-1.361-2.67-2.766-4.132
				c-6.557-6.852-18.077-0.211-18.077-0.211c-5.427,2.182-16.544,13.581-18.328,15.208c-0.156,0.142-0.485,0.252-0.952,0.368
				c-0.05-0.002-0.101,0.02-0.139,0.031c-0.365,0.071-0.792,0.126-1.293,0.177c-0.063,0.01-0.113,0.007-0.175,0.017
				c-6.792,0.946-14.016,1.785-21.524,2.574c-0.038,0.011-0.088,0.008-0.15,0.018C261.946,218.867,262.602,220.057,263.021,221.249z
				"/>
			<path style="opacity:0.4;fill:#FFD2A8;" d="M324.411,203.658c0.275,0.764,0.419,1.521,0.409,2.274
				c0.012,3.825-3.556,7.344-8.394,11.746c-4.208,3.831-8.164,10.313-13.744,14.66c-0.78,0.614-1.609,1.17-2.461,1.689
				c-1.585,0.965-3.277,1.719-5.142,2.214c-0.018,0.011-0.042,0.014-0.051,0.019c-0.678,0.17-1.387,0.31-2.116,0.399
				c-0.012,0.02-0.012,0.02-0.024,0.002c-1.835,0.261-3.844,0.265-6.007-0.079c-9.738-1.516-18.57-9.518-23.86-15.331
				c-0.293-0.854-0.721-1.7-1.288-2.547c5.365,5.691,13.733,12.869,22.908,14.294c2.163,0.343,4.171,0.34,6.007,0.079
				c0.011,0.018,0.011,0.018,0.024-0.002c0.729-0.089,1.438-0.228,2.116-0.399c0.009-0.006,0.033-0.008,0.051-0.019
				c1.871-0.486,3.558-1.249,5.142-2.214c0.852-0.52,1.681-1.075,2.461-1.689c5.58-4.347,9.542-10.82,13.744-14.66
				c4.838-4.402,8.406-7.921,8.394-11.746c0.016-0.744-0.128-1.501-0.407-2.25C323.28,201.342,323.995,202.527,324.411,203.658z"/>
			<path style="fill:#65B161;" d="M127.669,218.783c-0.838,2.119,0.611,4.431,2.888,4.522c22.898,0.913,63.807-0.176,102.888-3.135
				c9.051-0.692,18.018-1.476,26.617-2.376c0.313-0.023,0.639-0.058,0.94-0.094c0.063-0.01,0.113-0.007,0.15-0.018
				c7.508-0.788,14.732-1.627,21.524-2.574c0.063-0.01,0.113-0.007,0.175-0.017c0.428-0.08,0.866-0.122,1.293-0.177
				c0.038-0.011,0.089-0.033,0.139-0.031c0.467-0.116,0.796-0.225,0.952-0.368c1.784-1.627,12.901-13.026,18.328-15.208
				c0,0,11.521-6.641,18.077,0.211c1.404,1.462,2.289,2.825,2.766,4.132c0.276,0.774,0.416,1.529,0.406,2.277
				c3.598-1.468,6.115-3.023,7.351-4.675c4.241-5.679,6.676-13.026,7.166-20.388c-0.075-0.003-0.136-0.019-0.185-0.046
				c-4.638-0.85-8.507-1.902-10.897-2.823c-7.82-3.005-14.411-2.075-21.305,5.403c-6.894,7.478-28.733,24.719-49.27,23.459
				c-20.511-1.259-22.27-13.964-19.622-17.284c2.647-3.296,4.39-7.269,22.626-10.494c10.258-2.794,18.25-3.523,29.533-18.27
				c3.426-4.507,6.33-9.038,9.27-13.268c-2.568-0.306-2.568-0.306-2.568-0.306l-34.209-7.442l-120.857-26.316
				c-1.137-0.248-2.209,0.615-2.195,1.779C139.804,127.657,139.884,187.9,127.669,218.783z"/>
			<path style="fill:#FCECD2;" d="M374.184,181.888c0,0,1.805,8.191-2.284,8.938c-4.088,0.747-7.87-1.767-7.42-8.139
				C368.76,181.17,374.184,181.888,374.184,181.888z"/>
			<path style="opacity:0.6;fill:#FCECD2;" d="M366.187,189.12c1.412,1.575,3.52,2.109,5.709,1.711
				c4.089-0.747,2.284-8.951,2.284-8.951s-0.384-0.055-1.043-0.098c0.326,2.136,0.816,7.46-2.442,8.045
				C369.059,190.126,367.473,189.903,366.187,189.12z"/>
			<path style="fill:#FCECD2;" d="M324.277,206.771c0,0-11.051-4.056-13.124-3.061c-2.073,0.996-9.188,9.183-5.887,12.942
				C309.553,221.532,317.551,217.375,324.277,206.771z"/>
			<path style="opacity:0.6;fill:#FCECD2;" d="M305.263,216.648c4.29,4.888,12.291,0.717,19.017-9.874c0,0-0.294-0.113-0.81-0.287
				c-6.438,9.208-13.755,12.612-17.772,8.023c-0.64-0.728-0.885-1.625-0.852-2.609C304.228,213.682,304.173,215.4,305.263,216.648z"
				/>
			<path style="opacity:0.4;fill:#FFD2A8;" d="M302.443,239.248c0.25,0.249,0.541,0.437,0.896,0.59
				c0.649,0.267,1.48,0.368,2.544,0.279c4.409-0.395,9.696-2.234,15.114-4.766c0.013-0.012,0.038-0.011,0.051-0.023
				c8.002-3.909,16.941-9.484,23.746-14.496c0.452-0.341,0.892-0.67,1.331-0.999c0.297-0.223,0.569-0.448,0.855-0.684
				c12.883-10.744,15.468-35.66,15.565-36.678c0.001-0.025,0.001-0.025,0.001-0.025l-1.865,0.126
				C360.864,224.807,302.443,239.248,302.443,239.248z"/>
			<path style="fill:#FCECD2;" d="M360.378,183.992c0,0-0.171,13.238-7.066,14.175c-6.895,0.938-8.772-5.698-8.226-7.388
				c0.546-1.69,1.482-8.505,1.482-8.505S359.244,181.747,360.378,183.992z"/>
			<path style="opacity:0.6;fill:#FCECD2;" d="M353.32,198.163c6.892-0.942,7.066-14.168,7.066-14.168
				c-0.171-0.345-0.632-0.64-1.283-0.858c-0.128,2.501-0.978,12.815-7.042,13.646c-2.548,0.344-4.424-0.354-5.746-1.438
				C347.579,197.149,349.793,198.636,353.32,198.163z"/>
			<path style="opacity:0.4;fill:#FFD2A8;" d="M289.897,210.03c0,0-7.37,6.964-6.604,10.637c-3.545-5.161-3.545-5.161-3.545-5.161
				l5.488-0.991L289.897,210.03z"/>
			<path style="opacity:0.4;fill:#FFD2A8;" d="M256.193,218.189c0,0,7.118,2.798,6.64,10.99c2.834-5.159-1.831-11.479-1.831-11.479
				L256.193,218.189z"/>
			<path style="fill:#77C373;" d="M139.597,213.259c55.955,0.326,117.36-0.93,150.975-3.869c4.147-3.9,9.647-8.748,13.002-10.09
				c0,0,11.521-6.641,18.077,0.211l0.119,0.13c5.064-5.666,9.227-13.707,9.88-20.55c-1.317-0.373-2.473-0.75-3.392-1.105
				c-7.819-3.006-14.411-2.075-21.305,5.403c-6.894,7.478-28.733,24.719-49.27,23.459c-20.511-1.259-22.27-13.964-19.622-17.284
				c2.647-3.296,4.39-7.269,22.626-10.494c10.258-2.795,18.25-3.523,29.534-18.27c1.568-2.073,3.036-4.151,4.453-6.206
				l-146.635-30.159C148.039,124.436,150.377,173.217,139.597,213.259z"/>
			<path style="fill:#FFD2A8;" d="M257.673,206.857c20.536,1.26,42.376-15.981,49.27-23.459c6.894-7.478,13.486-8.408,21.305-5.403
				c2.39,0.921,6.258,1.973,10.897,2.823c0.083-0.171,0.152-0.33,0.21-0.502c0.004,0.187-0.017,0.373-0.025,0.548
				c6.381,1.193,14.139,2.038,21.351,1.709c1.475-0.057,2.902-0.165,4.294-0.338c3.034-0.334,5.869-0.939,8.38-1.846
				c1.015-0.377,2.156-0.774,3.373-1.191c15.029-5.094,43.26-12.709,43.26-12.709c-25.46-59.965-71.614-42.924-92.368-39.192
				c-14.414,2.578-21.409,10.625-28.14,20.243c-2.94,4.23-5.843,8.761-9.27,13.268c-11.284,14.747-19.276,15.476-29.533,18.27
				c-18.236,3.225-19.979,7.198-22.626,10.494C235.403,192.893,237.162,205.598,257.673,206.857z"/>
			<path style="fill:#FCECD2;" d="M260.326,183.046c0,0,3.083,13.78,1.974,14.791c-1.109,1.011-14.954,5.508-18.543,2.686
				c-3.589-2.822-6.634-13.589,1.795-15.857C253.98,182.399,260.326,183.046,260.326,183.046z"/>
			<path style="opacity:0.4;fill:#FFD2A8;" d="M403.886,159.605c0,0-19.384,20.7-34.689,21.955
				c-15.306,1.255-31.122-0.006-42.401-4.081C359.597,178.65,356.214,187.615,403.886,159.605z"/>
			<path style="opacity:0.6;fill:#FCECD2;" d="M246.98,201.432c5.414,0.263,14.423-2.777,15.309-3.584
				c1.107-1.009-1.962-14.785-1.962-14.785s-0.174-0.008-0.51-0.036C261.325,188.186,262.588,199.196,246.98,201.432z"/>
			<path style="fill:#FCECD2;" d="M487.293,156.489l12.094-4.917l-39.158-96.314l-12.094,4.917c-0.959,0.39-1.421,1.484-1.031,2.443
				l37.746,92.84C485.24,156.417,486.334,156.879,487.293,156.489z"/>
			<path style="fill:#3C3C3B;" d="M507.97,161.971l42.98-16.183L502.805,27.371l-42.98,16.183c-2.064,0.839-3.057,3.193-2.218,5.256
				l45.106,110.943C503.552,161.817,505.906,162.81,507.97,161.971z"/>
			<path style="opacity:0.4;fill:#77C373;" d="M238.075,189.473c-1.8,2.26-1.56,8.85,5.23,13.25c-17.63-0.65-31.66-11.3-31.66-24.34
				c0-13.46,14.95-24.37,33.38-24.37c15.87,0,29.15,8.08,32.54,18.92c-5.59,3.47-10.83,4.41-16.86,6.05
				C242.465,182.203,240.725,186.173,238.075,189.473z"/>
		</g>
	</g>
	<g>
		<defs>
			<rect id="SVGID_00000013174622592520804500000015181618610214570380_" y="120.079" width="455.816" height="354.092"/>
		</defs>
		<clipPath id="SVGID_00000044139531491284875130000003942936166368923799_">
			<use xlink:href="#SVGID_00000013174622592520804500000015181618610214570380_"  style="overflow:visible;"/>
		</clipPath>
		<g style="clip-path:url(#SVGID_00000044139531491284875130000003942936166368923799_);">
			<path style="fill:#F4C198;" d="M245.696,363.694c9.49,0.568,17.61,0.702,22.589,0.735c5.213-4.244,6.516-9.925,6.215-15.204
				C264.609,353.903,254.919,358.748,245.696,363.694z"/>
			<path style="fill:#F4C198;" d="M210.976,384.646c15.739,2.774,30.943,4.21,41.269,4.979c0.034,0,0.034,0,0.034,0
				c9.357-2.506,13.266-12.097,12.899-23.124c0.668-0.367,1.337-0.768,1.905-1.169c-5.012,0.468-12.999,0.768-24.06-0.167h-0.033
				C231.394,371.48,220.567,377.996,210.976,384.646z"/>
			<path style="fill:#F4C198;" d="M172.882,400.753c13.133,9.925,46.549,14.202,61.285,15.672
				c15.104-1.971,14.302-16.374,11.662-25.33c-9.457-0.201-20.384-1.504-36.29-5.447c-6.449,4.545-12.331,9.156-17.443,13.768
				c-1.871-2.807-3.576-5.38-5.18-7.786c-1.437,1.103-2.874,2.172-4.277,3.275c-4.912-3.743-11.295-10.493-17.41-17.443
				c-1.437,1.002-2.907,1.971-4.478,2.907c0,0,0,0-0.034,0.033c0,0.033-0.033,0.033-0.033,0.033
				C160.25,381.204,156.675,388.489,172.882,400.753z"/>
			<path style="fill:#F4C198;" d="M48.406,334.755v101.485l42.171-0.401c0,0,12.965,3.743,41.369,7.92
				c20.651,3.041,40.601-0.768,58.646-2.272c-19.181-4.979-30.91-20.751-29.54-28.337c1.47-8.187,10.292-8.354,10.96-8.354
				c-0.401,0.167-7.118,2.941-8.588,7.786c-1.905,14.235,20.685,24.828,30.242,28.671c8.467,3.692,12.917,4.123,18.134,3.692
				c19.88-1.642,17.087-22.272,12.509-28.654c-9.022-1.136-19.716-2.473-27.067-3.442c-15.037-1.938-31.311-11.261-36.056-19.916
				c-4.378-7.92-1.069-11.896-0.501-12.498c-16.073,9.624-37.994,14.603-65.93,4.01c-29.306-11.128-30.409-30.509-22.99-48.22
				C58.832,337.563,48.406,334.755,48.406,334.755z"/>
			<path style="fill:#E5AE89;" d="M243.022,365.164c11.061,0.936,19.047,0.635,24.06,0.167c0.435-0.301,0.835-0.602,1.203-0.902
				c-4.979-0.034-13.099-0.167-22.589-0.735C244.794,364.162,243.925,364.663,243.022,365.164z"/>
			<path style="fill:#E5AE89;" d="M245.829,391.095c-0.1-0.267-0.201-0.535-0.267-0.802c2.506,0.134,4.678-0.067,6.683-0.668
				c-10.326-0.769-25.53-2.205-41.269-4.979h-0.033c-0.501,0.334-0.936,0.668-1.404,1.003
				C225.445,389.592,236.373,390.895,245.829,391.095z"/>
			<path style="fill:#E5AE89;" d="M161.186,392.933c4.745,8.655,21.019,17.978,36.056,19.916c7.352,0.969,18.045,2.306,27.067,3.442
				c-0.033-0.033-0.033-0.067-0.067-0.1c3.91,0.568,7.185,0.602,9.925,0.234c-14.737-1.47-48.153-5.747-61.285-15.672
				c-16.207-12.264-12.631-19.548-12.197-20.317C160.117,381.037,156.809,385.014,161.186,392.933z"/>
			<path style="fill:#E5AE89;" d="M190.592,441.487c0,0,0,0,0.033,0c1.036-0.1,2.038-0.167,3.041-0.234
				c-9.557-3.843-32.146-14.436-30.242-28.671c1.47-4.845,8.187-7.619,8.588-7.786c-0.668,0-9.49,0.167-10.96,8.354
				C159.682,420.736,171.411,436.508,190.592,441.487z"/>
			<path style="fill:#2A9A51;" d="M165.229,377.462c6.115,6.95,12.498,13.701,17.41,17.443c1.403-1.103,2.84-2.172,4.277-3.275
				c3.91-2.941,7.953-5.848,12.163-8.722c0.201-0.167,0.401-0.301,0.602-0.435c9.49-6.483,19.615-12.798,30.141-18.847
				c0.568-0.367,1.136-0.702,1.738-1.003c13.3-7.652,27.201-14.904,41.236-21.72c69.005-33.617,132.651-53.316,132.651-53.316
				s-12.263-17.276-38.996-35.655c-13.367,2.206-34.675,14.018-85.735,37.51c-5.213,2.406-10.426,4.812-15.639,7.251
				c2.44,0,5.113,0.702,8.053,2.473c13.367,8.02-2.105,24.293-5.447,27.234c-0.468,0.401-1.435,0.165-1.568,0.666
				c-8.388,3.642-15.908,7.989-23.728,11.464c-12.531,3.442-28.805,5.748-48.621,4.144c-1.069,3.809-7.82,16.708-20.284,28.103
				c-0.034,0.034-0.034,0.034-0.034,0.034C170.943,373.117,168.203,375.356,165.229,377.462z"/>
			<path style="fill:#2FA754;" d="M391.878,282.648c0,0-63.641,19.704-132.651,53.32c-14.032,6.813-27.935,14.069-41.231,21.72
				c-0.608,0.295-1.169,0.635-1.74,1.004c-10.524,6.049-20.652,12.366-30.145,18.848c-0.203,0.129-0.396,0.267-0.599,0.433
				c-4.143,2.827-8.13,5.69-11.979,8.581c-2.735-2.817-5.58-5.948-8.37-9.115c2.974-2.109,5.718-4.346,8.222-6.657
				c0,0,0,0,0.037-0.028c12.458-11.399,19.207-24.298,20.284-28.11c19.814,1.611,36.084-0.7,48.615-4.143
				c7.817-3.471,15.339-7.817,23.727-11.463c0.138-0.497,1.105-0.258,1.574-0.663c3.333-2.937,18.811-19.216,5.442-27.235
				c-2.937-1.768-5.617-2.468-8.057-2.468c5.221-2.44,10.432-4.852,15.643-7.255c45.052-20.717,66.938-32.355,80.647-36.323
				C382.201,269.022,391.878,282.648,391.878,282.648z"/>
			<path style="fill:#23944E;" d="M186.917,391.63c1.604,2.406,3.308,4.979,5.18,7.786c5.113-4.612,10.994-9.223,17.443-13.768
				c0.468-0.334,0.902-0.668,1.404-1.003h0.033c9.59-6.65,20.417-13.166,32.013-19.482h0.033c0.902-0.501,1.771-1.003,2.673-1.47
				c9.223-4.946,18.914-9.791,28.805-14.469c74.919-35.288,129.099-49.768,129.099-49.768l-7.352-8.955
				c-16.374,5.146-54.446,16.786-123.451,50.403c-14.035,6.817-27.936,14.068-41.236,21.72c-0.602,0.301-1.17,0.635-1.738,1.003
				c-10.526,6.048-20.651,12.364-30.141,18.847c-0.2,0.134-0.401,0.267-0.602,0.435C194.87,385.782,190.826,388.689,186.917,391.63z
				"/>
			<path style="fill:#F4C198;" d="M94.754,384.445c27.936,10.593,49.857,5.614,65.93-4.01c0,0,0.033,0,0.033-0.033
				c0.034-0.033,0.034-0.033,0.034-0.033c1.57-0.936,3.041-1.905,4.478-2.907c2.974-2.105,5.714-4.344,8.22-6.65
				c0,0,0,0,0.034-0.034c12.464-11.395,19.214-24.294,20.284-28.103c19.816,1.604,36.09-0.702,48.621-4.144
				c7.82-3.475,13.567-6.048,21.955-9.691c0.134-0.501,2.874-2.039,3.342-2.44c3.342-2.941,18.813-19.214,5.447-27.234
				c-2.941-1.771-5.614-2.473-8.053-2.473h-0.033c-0.769,0-1.504,0.067-2.239,0.201c-4.277,0.769-7.819,3.542-10.86,5.881
				c-0.033,0.033-0.067,0.033-0.067,0.067c-1.905,1.47-3.643,2.807-5.28,3.342c-0.234,0.067-0.434,0.134-0.635,0.167
				c-0.601,0.134-1.27,0.201-2.072,0.201c-7.452,0.434-22.79-2.272-33.015-1.871c-11.261,0.401-19.214-1.27-30.91-5.012
				c-11.696-3.776-63.491,14.603-84.376,28.404c-7.753,5.113-16.207,7.352-23.826,8.154
				C64.346,353.936,65.448,373.318,94.754,384.445z"/>
			<path style="fill:#FFF4E3;" d="M246.598,306.185c1.403,2.439,4.444,5.346,7.786,6.583c5.146,1.972,14.035-6.516,14.035-9.189
				c-1.537-4.478-3.843-6.115-5.614-6.683c-4.277,0.769-7.819,3.542-10.86,5.881c-0.033,0.033-0.067,0.033-0.067,0.067
				C249.973,304.313,248.235,305.65,246.598,306.185z"/>
			<path style="opacity:0.5;fill:#EADECE;" d="M268.418,303.578c0,2.68-8.89,11.16-14.03,9.19c-3.35-1.23-6.39-4.14-7.79-6.58
				c0.56-0.19,1.14-0.46,1.73-0.82c1.58,1.74,3.74,3.39,6.06,4.25c4.34,1.66,11.34-4.12,13.43-7.57
				C268.028,302.518,268.228,303.028,268.418,303.578z"/>
			<path style="fill:#E5AE89;" d="M193.767,342.675c0,0-18.592,50.169-77.749,49.478
				C125.225,387.871,162.409,390.104,193.767,342.675z"/>
			<g>
				<path style="fill:#FFF4E3;" d="M173.756,407.696c-0.93-0.17-1.876,0.151-2.513,0.85c-2.046,2.242-6.158,7.518-3.865,11.576
					c2.992,5.294,9.177,6.675,11.249,4.604c2.072-2.072,6.081-8.632,4.834-12.315C182.514,409.611,176.561,408.208,173.756,407.696z
					"/>
				<path style="opacity:0.5;fill:#EADECE;" d="M183.673,414.805c-0.414,3.646-3.352,8.25-5.018,9.926
					c-2.081,2.063-8.259,0.681-11.251-4.604c-1.04-1.841-0.764-3.931,0.046-5.874c-0.092,1.068,0.092,2.127,0.644,3.112
					c2.992,5.285,9.18,6.666,11.242,4.604C180.616,420.688,182.605,417.742,183.673,414.805z"/>
			</g>
			<g>
				<path style="fill:#FFF4E3;" d="M166.548,378.951c0,0-4.724,4.685-3.803,7.217c0.921,2.532,5.475,8.991,10.449,5.992
					c3.39-2.587,3.39-2.587,3.39-2.587L166.548,378.951z"/>
				<path style="opacity:0.5;fill:#EADECE;" d="M176.586,389.573c0,0,0,0-3.388,2.587c-4.972,3.002-9.53-3.462-10.45-5.994
					c-0.202-0.543-0.138-1.188,0.083-1.869c1.105,2.67,5.543,8.673,10.368,5.755c1.022-0.773,1.731-1.317,2.228-1.703
					L176.586,389.573z"/>
			</g>
			<path style="opacity:0.3;fill:#2FA754;" d="M305.257,290.713c0,16.656-13.498,30.154-30.154,30.154
				c-0.773,0-1.538-0.028-2.293-0.092c4.88-6.289,9.778-16.039,0.359-21.683c-2.937-1.768-5.616-2.467-8.056-2.467
				c5.22-2.44,10.432-4.852,15.643-7.256c8.112-3.729,15.478-7.163,22.171-10.312C304.428,282.638,305.257,286.579,305.257,290.713z
				"/>
			<path style="fill:#FCECD2;" d="M52.4,444.905H36.604v-117.28H52.4c3.141,0,5.688,2.547,5.688,5.688v105.904
				C58.088,442.358,55.542,444.905,52.4,444.905z"/>
			<path style="fill:#3C3C3B;" d="M34.982,451.004H-0.686V321.18h35.668c2.158,0,3.908,1.75,3.908,3.908v122.009
				C38.889,449.254,37.14,451.004,34.982,451.004z"/>
		</g>
	</g>
</g>
<g id="DESIGNED_BY_FREEPIK">
	<g>
		<g id="XMLID_319_">
			<g id="XMLID_338_">
				<path id="XMLID_346_" style="fill:#112129;" d="M260.104,465.465c-0.433,0.443-0.804,0.932-1.108,1.453l-0.465-0.241
					c-0.067-0.297-0.35-0.502-0.659-0.466c-0.331,0.039-0.567,0.339-0.529,0.67c0.039,0.331,0.339,0.567,0.67,0.528
					c0.065-0.007,0.127-0.025,0.184-0.052l0.451,0.234c-0.251,0.554-0.433,1.139-0.539,1.743l0.747,0.132
					c0.229-1.306,0.85-2.507,1.792-3.473L260.104,465.465z"/>
				<path id="XMLID_345_" style="fill:#112129;" d="M265.591,463.164c-0.171,0-0.341,0.006-0.509,0.017l-0.074-0.626
					c0.188-0.149,0.296-0.389,0.266-0.645c-0.046-0.393-0.402-0.674-0.795-0.628c-0.394,0.046-0.675,0.402-0.628,0.796
					c0.03,0.254,0.189,0.461,0.404,0.563l0.073,0.624c-0.714,0.116-1.402,0.332-2.06,0.646l0.327,0.685
					c0.935-0.447,1.941-0.674,2.995-0.674c0.497,0,0.993,0.053,1.476,0.158l0.16-0.741
					C266.692,463.222,266.142,463.164,265.591,463.164z"/>
				<path id="XMLID_344_" style="fill:#112129;" d="M272.194,465.711c0.331-0.04,0.566-0.341,0.525-0.672
					c-0.04-0.331-0.341-0.566-0.672-0.525c-0.31,0.038-0.535,0.304-0.53,0.608l-0.416,0.363c-0.418-0.43-0.89-0.813-1.407-1.14
					l-0.404,0.642c1.135,0.715,2.021,1.727,2.564,2.925l0.69-0.313c-0.251-0.554-0.567-1.071-0.942-1.545l0.402-0.351
					C272.065,465.715,272.128,465.719,272.194,465.711z"/>
				<path id="XMLID_343_" style="fill:#112129;" d="M265.044,473.372c-0.386,0.023-0.775,0.035-1.157,0.035
					c-0.88,0-1.733-0.061-2.479-0.18c-0.391-0.062-0.846-0.154-1.271-0.292c1.047,1.861,3.069,3.125,5.389,3.125
					c2.855,0,5.263-1.916,5.949-4.503c-0.682,0.449-1.505,0.825-2.458,1.122C267.838,473.047,266.463,473.287,265.044,473.372z"/>
				<path id="XMLID_339_" style="fill:#112129;" d="M265.591,464.68c-3.351,0-6.079,2.666-6.079,5.943
					c0,0.425,0.046,0.849,0.137,1.261c0.674,0.483,2.706,0.891,5.348,0.731c2.88-0.174,5.297-0.958,6.672-2.159
					c-0.005-0.194-0.02-0.39-0.045-0.581C271.244,466.914,268.65,464.68,265.591,464.68z M263.432,471.195
					c-1.02,0-1.85-0.83-1.85-1.85c0-1.021,0.83-1.851,1.85-1.851c1.02,0,1.85,0.83,1.85,1.851
					C265.282,470.365,264.452,471.195,263.432,471.195z M268.169,470.287c-0.75,0-1.36-0.61-1.36-1.36s0.61-1.36,1.36-1.36
					s1.36,0.61,1.36,1.36S268.919,470.287,268.169,470.287z"/>
			</g>
			<path id="XMLID_336_" style="fill:#112129;" d="M281.595,466.547c-0.295-0.116-0.806-0.31-1.383-0.238
				c-0.551,0.069-0.844,0.341-0.844,1.007v0.866h2.229v1.717h-2.229v5.455h-1.932v-5.455h-1.339v-1.717h1.339v-0.889
				c0-1.68,0.896-2.782,2.568-2.782c0.643,0,1.157,0.121,1.59,0.308V466.547z"/>
			<path id="XMLID_334_" style="fill:#112129;" d="M286.297,469.878c-0.177-0.029-0.357-0.046-0.525-0.046
				c-0.896,0-1.51,0.548-1.51,1.613v3.908h-1.933v-7.172h1.873v0.784c0.451-0.673,1.14-0.977,2.021-0.977
				c0.414,0,0.848,0.128,1.095,0.337L286.297,469.878z"/>
			<path id="XMLID_331_" style="fill:#112129;" d="M293.965,471.757c0,0.222-0.016,0.488-0.037,0.651h-5.085
				c0.207,1.036,0.933,1.487,1.843,1.487c0.622,0,1.295-0.252,1.813-0.689l1.133,1.243c-0.814,0.748-1.851,1.089-3.057,1.089
				c-2.198,0-3.724-1.496-3.724-3.753c0-2.258,1.48-3.797,3.627-3.797C292.543,467.99,293.958,469.522,293.965,471.757z
				 M288.851,471.091h3.175c-0.178-0.918-0.732-1.437-1.561-1.437C289.554,469.655,289.021,470.203,288.851,471.091z"/>
			<path id="XMLID_328_" style="fill:#112129;" d="M301.619,471.757c0,0.222-0.016,0.488-0.037,0.651h-5.085
				c0.207,1.036,0.933,1.487,1.843,1.487c0.622,0,1.296-0.252,1.814-0.689l1.133,1.243c-0.815,0.748-1.851,1.089-3.058,1.089
				c-2.198,0-3.723-1.496-3.723-3.753c0-2.258,1.48-3.797,3.627-3.797C300.197,467.99,301.611,469.522,301.619,471.757z
				 M296.504,471.091h3.175c-0.178-0.918-0.733-1.437-1.561-1.437C297.208,469.655,296.674,470.203,296.504,471.091z"/>
			<path id="XMLID_325_" style="fill:#112129;" d="M309.964,471.764c0,2.154-1.495,3.775-3.472,3.775
				c-0.962,0-1.644-0.378-2.109-0.933v3.708h-1.925v-10.133h1.888v0.792c0.467-0.585,1.154-0.984,2.139-0.984
				C308.469,467.99,309.964,469.611,309.964,471.764z M304.287,471.764c0,1.133,0.748,1.977,1.844,1.977
				c1.14,0,1.85-0.881,1.85-1.977c0-1.095-0.71-1.976-1.85-1.976C305.035,469.789,304.287,470.632,304.287,471.764z"/>
			<path id="XMLID_322_" style="fill:#112129;" d="M313.068,465.836c0,0.696-0.541,1.229-1.236,1.229
				c-0.696,0-1.229-0.533-1.229-1.229c0-0.695,0.532-1.243,1.229-1.243C312.527,464.592,313.068,465.14,313.068,465.836z
				 M312.808,475.354h-1.932v-7.172h1.932V475.354z"/>
			<path id="XMLID_320_" style="fill:#112129;" d="M316.032,470.736l2.702-2.554h2.368l-3.478,3.375l3.501,3.797h-2.376
				l-2.717-2.901v2.901H314.1v-10.658h1.932V470.736z"/>
		</g>
		<g>
			<path style="fill:#112129;" d="M184.412,475.29v-1.055c-0.527,0.718-1.391,1.23-2.387,1.23c-1.846,0-3.149-1.406-3.149-3.706
				c0-2.256,1.289-3.721,3.149-3.721c0.952,0,1.816,0.469,2.387,1.245v-3.765h1.099v9.771H184.412z M184.412,473.371v-3.208
				c-0.395-0.615-1.245-1.143-2.124-1.143c-1.42,0-2.27,1.172-2.27,2.739c0,1.567,0.85,2.725,2.27,2.725
				C183.167,474.484,184.017,473.986,184.412,473.371z"/>
			<path style="fill:#112129;" d="M186.932,471.745c0-2.051,1.465-3.706,3.486-3.706c2.139,0,3.398,1.67,3.398,3.794v0.278h-5.727
				c0.088,1.333,1.025,2.446,2.549,2.446c0.806,0,1.626-0.322,2.182-0.894l0.527,0.718c-0.703,0.703-1.655,1.084-2.812,1.084
				C188.44,475.465,186.932,473.957,186.932,471.745z M190.403,468.947c-1.509,0-2.256,1.274-2.314,2.358h4.644
				C192.718,470.25,192.015,468.947,190.403,468.947z"/>
			<path style="fill:#112129;" d="M194.607,474.352l0.571-0.791c0.469,0.542,1.362,1.011,2.329,1.011c1.084,0,1.67-0.513,1.67-1.216
				c0-1.714-4.38-0.659-4.38-3.281c0-1.099,0.952-2.036,2.636-2.036c1.202,0,2.051,0.454,2.623,1.025l-0.513,0.762
				c-0.424-0.513-1.201-0.894-2.109-0.894c-0.966,0-1.567,0.483-1.567,1.113c0,1.553,4.379,0.527,4.379,3.281
				c0,1.187-0.952,2.139-2.783,2.139C196.306,475.465,195.325,475.114,194.607,474.352z"/>
			<path style="fill:#112129;" d="M201.477,466.471c0-0.41,0.337-0.747,0.732-0.747c0.41,0,0.747,0.337,0.747,0.747
				c0,0.41-0.337,0.732-0.747,0.732C201.814,467.204,201.477,466.881,201.477,466.471z M201.667,475.29v-7.075h1.099v7.075H201.667z
				"/>
			<path style="fill:#112129;" d="M204.582,477.106l0.556-0.82c0.586,0.703,1.289,0.967,2.3,0.967c1.172,0,2.27-0.571,2.27-2.124
				v-1.011c-0.513,0.718-1.377,1.26-2.373,1.26c-1.846,0-3.149-1.377-3.149-3.662c0-2.271,1.289-3.677,3.149-3.677
				c0.952,0,1.802,0.469,2.373,1.245v-1.069h1.099v6.87c0,2.344-1.641,3.076-3.369,3.076
				C206.237,478.161,205.416,477.925,204.582,477.106z M209.708,473.253v-3.091c-0.381-0.615-1.23-1.143-2.109-1.143
				c-1.421,0-2.27,1.128-2.27,2.695c0,1.553,0.849,2.695,2.27,2.695C208.478,474.411,209.328,473.869,209.708,473.253z"/>
			<path style="fill:#112129;" d="M217.413,475.29v-4.629c0-1.245-0.63-1.641-1.582-1.641c-0.864,0-1.685,0.527-2.094,1.099v5.171
				h-1.099v-7.075h1.099v1.025c0.497-0.586,1.464-1.201,2.519-1.201c1.48,0,2.256,0.747,2.256,2.285v4.966H217.413z"/>
			<path style="fill:#112129;" d="M219.932,471.745c0-2.051,1.465-3.706,3.486-3.706c2.139,0,3.398,1.67,3.398,3.794v0.278h-5.727
				c0.088,1.333,1.025,2.446,2.548,2.446c0.806,0,1.626-0.322,2.183-0.894l0.527,0.718c-0.703,0.703-1.655,1.084-2.813,1.084
				C221.441,475.465,219.932,473.957,219.932,471.745z M223.404,468.947c-1.509,0-2.256,1.274-2.314,2.358h4.643
				C225.718,470.25,225.015,468.947,223.404,468.947z"/>
			<path style="fill:#112129;" d="M233.35,475.29v-1.055c-0.527,0.718-1.392,1.23-2.388,1.23c-1.845,0-3.149-1.406-3.149-3.706
				c0-2.256,1.289-3.721,3.149-3.721c0.952,0,1.817,0.469,2.388,1.245v-3.765h1.098v9.771H233.35z M233.35,473.371v-3.208
				c-0.396-0.615-1.245-1.143-2.124-1.143c-1.421,0-2.27,1.172-2.27,2.739c0,1.567,0.85,2.725,2.27,2.725
				C232.105,474.484,232.954,473.986,233.35,473.371z"/>
			<path style="fill:#112129;" d="M239.692,475.29v-9.771h1.099v3.765c0.571-0.776,1.421-1.245,2.388-1.245
				c1.845,0,3.149,1.465,3.149,3.721c0,2.3-1.304,3.706-3.149,3.706c-0.996,0-1.86-0.513-2.388-1.23v1.055H239.692z M242.9,474.484
				c1.436,0,2.285-1.157,2.285-2.725c0-1.567-0.85-2.739-2.285-2.739c-0.864,0-1.729,0.527-2.109,1.143v3.208
				C241.171,473.986,242.036,474.484,242.9,474.484z"/>
			<path style="fill:#112129;" d="M247.528,477.062c0.161,0.073,0.425,0.117,0.6,0.117c0.483,0,0.806-0.161,1.055-0.747l0.469-1.069
				l-2.959-7.148h1.187l2.358,5.801l2.344-5.801h1.2l-3.544,8.511c-0.425,1.024-1.143,1.421-2.08,1.436
				c-0.234,0-0.6-0.044-0.806-0.104L247.528,477.062z"/>
		</g>
	</g>
</g>
</svg>
